<svg xmlns="http://www.w3.org/2000/svg" width="401" height="300" viewBox="0 0 401 300" fill="none">
<g id="ГЁВ±В†ГҐВЊВ…Г©В…ВЌГЁВ‰ВІГҐВЏВ‚ГЁВЂВѓ">
<path d="M-98 -183V-182H1385V-183V-184H-98V-183ZM1387 -181H1386V781H1387H1388V-181H1387ZM1385 783V782H-98V783V784H1385V783ZM-100 781H-99V-181H-100H-101V781H-100ZM-98 783V782C-98.5523 782 -99 781.552 -99 781H-100H-101C-101 782.657 -99.6569 784 -98 784V783ZM1387 781H1386C1386 781.552 1385.55 782 1385 782V783V784C1386.66 784 1388 782.657 1388 781H1387ZM1385 -183V-182C1385.55 -182 1386 -181.552 1386 -181H1387H1388C1388 -182.657 1386.66 -184 1385 -184V-183ZM-98 -183V-184C-99.6568 -184 -101 -182.657 -101 -181H-100H-99C-99 -181.552 -98.5523 -182 -98 -182V-183Z" fill="white" fill-opacity="0.1" />
<g id="animate_1" clip-path="url(#clip0_1018_21205)">
<g id="Г§В«В–Г§ВєВї">
<line id="Line 457" y1="2.18557e-08" x2="-1.31134e-05" y2="300" stroke="url(#paint0_linear_1018_21205)" stroke-opacity="0.3" />
<line id="Line 456" x1="40" y1="2.18557e-08" x2="40" y2="300" stroke="url(#paint1_linear_1018_21205)" stroke-opacity="0.5" />
<line id="Line 455" x1="80" y1="2.18557e-08" x2="80" y2="300" stroke="url(#paint2_linear_1018_21205)" stroke-opacity="0.7" />
<line id="Line 458" x1="120" y1="2.18557e-08" x2="120" y2="300" stroke="url(#paint3_linear_1018_21205)" stroke-opacity="0.9" />
<line id="Line 459" x1="160" y1="2.18557e-08" x2="160" y2="300" stroke="url(#paint4_linear_1018_21205)" />
<line id="Line 460" x1="200" y1="2.18557e-08" x2="200" y2="300" stroke="url(#paint5_linear_1018_21205)" />
<line id="Line 461" x1="240" y1="2.18557e-08" x2="240" y2="300" stroke="url(#paint6_linear_1018_21205)" />
<line id="Line 462" x1="280" y1="2.18557e-08" x2="280" y2="300" stroke="url(#paint7_linear_1018_21205)" stroke-opacity="0.9" />
<line id="Line 463" x1="320" y1="2.18557e-08" x2="320" y2="300" stroke="url(#paint8_linear_1018_21205)" stroke-opacity="0.7" />
<line id="Line 464" x1="360" y1="2.18557e-08" x2="360" y2="300" stroke="url(#paint9_linear_1018_21205)" stroke-opacity="0.5" />
<line id="Line 465" x1="400" y1="2.18557e-08" x2="400" y2="300" stroke="url(#paint10_linear_1018_21205)" stroke-opacity="0.3" />
</g>
<g id="Г¦ВЁВЄГ§ВєВї">
<line id="Line 467" x1="-0.5" y1="29.5" x2="399.5" y2="29.5" stroke="url(#paint11_linear_1018_21205)" stroke-opacity="0.5" />
<line id="Line 468" x1="-0.5" y1="69.5" x2="399.5" y2="69.5" stroke="url(#paint12_linear_1018_21205)" stroke-opacity="0.7" />
<line id="Line 469" x1="-0.5" y1="109.5" x2="399.5" y2="109.5" stroke="url(#paint13_linear_1018_21205)" stroke-opacity="0.9" />
<line id="Line 470" x1="-0.5" y1="149.5" x2="399.5" y2="149.5" stroke="url(#paint14_linear_1018_21205)" />
<line id="Line 471" x1="-0.5" y1="189.5" x2="399.5" y2="189.5" stroke="url(#paint15_linear_1018_21205)" stroke-opacity="0.9" />
<line id="Line 472" x1="-0.5" y1="229.5" x2="399.5" y2="229.5" stroke="url(#paint16_linear_1018_21205)" stroke-opacity="0.7" />
<line id="Line 473" x1="-0.5" y1="269.5" x2="399.5" y2="269.5" stroke="url(#paint17_linear_1018_21205)" stroke-opacity="0.5" />
</g>
<g id="Rectangle 1329137859">
<rect x="68" y="120" width="266" height="60" rx="30" fill="white" />
<rect x="68.5" y="120.5" width="265" height="59" rx="29.5" stroke="#0057FF" stroke-opacity="0.3" />
</g>
<g id="_btn_04Г¦В“ВЌГ¤ВЅВњГҐВЊВє">
<path d="M99 133.5C108.113 133.5 115.5 140.887 115.5 150C115.5 159.113 108.113 166.5 99 166.5C89.8873 166.5 82.5 159.113 82.5 150C82.5 140.887 89.8873 133.5 99 133.5Z" stroke="#0057FF" stroke-opacity="0.3" />
<g id="dbx_ic_paperclip">
<path id="Vector (Stroke)" d="M102.547 144.363C101.534 143.349 99.89 143.349 98.8761 144.362L94.4076 148.831C92.8166 150.422 92.8166 153.002 94.4076 154.593C95.9986 156.184 98.5784 156.183 100.169 154.592L104.638 150.124C104.872 149.89 105.252 149.89 105.486 150.124C105.72 150.358 105.72 150.738 105.486 150.972L101.018 155.441C98.9581 157.5 95.6189 157.501 93.5593 155.441C91.4997 153.382 91.4997 150.042 93.5593 147.982L98.0277 143.514C99.5103 142.032 101.914 142.031 103.396 143.514C104.879 144.996 104.879 147.4 103.396 148.883L98.9605 153.318C98.0464 154.232 96.5642 154.232 95.6501 153.318C94.7361 152.404 94.7361 150.922 95.6501 150.008L100.086 145.572C100.32 145.338 100.7 145.338 100.935 145.573C101.169 145.807 101.169 146.187 100.935 146.421L96.4989 150.857C96.0535 151.302 96.0536 152.024 96.4989 152.469C96.9444 152.915 97.6667 152.915 98.1122 152.47L102.548 148.034C103.562 147.02 103.561 145.377 102.547 144.363Z" fill="black" />
</g>
</g>
<g id="Group 2117131884">
<g id="Rectangle 1329137860">
<rect x="133.392" y="104.038" width="130" height="130" rx="16" transform="rotate(-15 133.392 104.038)" fill="white" />
<rect x="134.004" y="104.392" width="129" height="129" rx="15.5" transform="rotate(-15 134.004 104.392)" stroke="#0057FF" stroke-opacity="0.3" />
</g>
<path id="Vector 4557" d="M182.786 146.193C183.681 144.276 186.01 140.964 187.296 139.153C187.32 139.119 187.344 139.086 187.367 139.052C187.674 138.619 187.955 138.205 188.282 137.724C189.071 136.564 190.119 135.021 192.488 131.859C193.123 130.915 193.772 129.96 194.417 129.022C197.019 125.277 199.476 121.681 202.513 117.882C204.789 115.218 207.348 112.829 210.598 110.988C212.238 110.098 214.072 109.284 216.403 109.175C218.717 108.976 221.573 110.362 222.819 112.294C224.098 114.095 224.389 115.997 224.478 117.641C224.491 117.828 224.501 118.016 224.508 118.2C224.631 121.825 223.648 125.727 222.89 128.103C221.906 131.115 221.085 133.063 220.414 134.662C219.385 137.321 218.286 139.929 217.17 142.518C214.44 148.873 211.88 155.352 209.481 161.866C208.434 164.729 207.404 167.614 206.507 170.49C206.275 171.245 206.034 172.051 205.888 172.721C205.513 174.532 205.357 176.47 205.779 178.02C206.182 179.301 206.877 179.845 207.859 179.994C208.26 180.056 208.701 180.049 209.149 179.998C210.094 179.884 211.04 179.415 211.829 178.936C214.554 177.268 217.285 174.253 219.155 171.979C219.462 171.604 219.749 171.246 220.01 170.912C221.415 169.011 222.727 167.039 223.971 165.011C224.069 164.883 224.166 164.757 224.264 164.631C224.64 164.14 225.011 163.61 225.397 163.01C226.324 161.57 227.4 159.773 228.922 157.41C229.871 155.941 230.993 154.25 232.405 152.315C233.317 151.071 233.866 150.485 234.309 150.011C234.442 149.87 234.565 149.739 234.688 149.606C235.11 149.146 235.482 148.606 235.941 147.975C236.541 147.158 237.266 146.18 238.517 145.101C239.397 144.353 240.241 143.716 241.071 143.246C244.208 141.393 246.831 143.083 247.693 144.198C248.083 144.652 248.368 145.108 248.594 145.593C249.066 146.586 249.313 147.933 249.287 149.192C249.271 149.978 249.151 150.654 249.034 151.253C248.789 152.548 248.29 155.044 247.882 156.918C247.73 157.627 247.479 158.58 247.177 159.689C246.864 160.84 246.494 162.165 246.126 163.589C245.197 167.178 244.715 169.091 244.396 170.599C244.305 171.027 244.229 171.413 244.165 171.813C244.121 172.083 244.077 172.404 244.066 172.637C244.011 173.617 244.141 174.697 244.617 175.412C245.059 176.108 245.848 176.498 246.748 176.612C247.231 176.676 247.704 176.614 248.134 176.488C251.217 175.577 253.852 172.102 255.616 168.829C255.703 168.663 255.792 168.489 255.874 168.324C256.685 166.694 257.491 165.162 258.17 164.032C258.922 162.779 259.457 162.118 259.684 162.217C259.913 162.309 259.818 163.158 259.413 164.572C259.048 165.845 258.457 167.486 257.719 169.182C257.637 169.369 257.547 169.565 257.458 169.75C255.47 173.479 253.183 177.533 248.289 178.969C247.684 179.093 247.039 179.128 246.402 179.043C244.984 178.885 243.375 178.117 242.511 176.729C241.64 175.362 241.504 173.835 241.568 172.483C241.813 170.074 242.411 168.153 242.927 166.076C243.827 162.647 244.784 159.257 245.615 155.862C245.699 155.519 245.785 155.159 245.865 154.818C246.263 152.805 246.655 150.646 246.606 149.234C246.577 148.614 246.486 148.06 246.364 147.596C246.007 146.258 245.45 145.558 244.959 145.201C244.615 144.957 244.274 144.852 243.89 144.866C243.685 144.874 243.389 144.918 243.016 145.069C242.817 145.15 242.599 145.26 242.363 145.408C240.678 146.449 238.391 149.076 236.445 151.521C235.441 152.774 234.291 154.263 233.225 155.717C231.7 157.793 230.345 159.792 229.739 160.848C229.101 161.959 228.388 163.158 227.69 164.341C227.211 165.152 226.716 165.948 226.234 166.697C225.092 168.475 224.025 169.985 223.475 170.887C222.817 171.965 222.161 172.821 221.135 174.057C220.419 174.91 219.529 175.954 218.236 177.312C216.733 178.881 215.504 179.861 214.386 180.613C212.845 181.588 211.614 182.355 209.375 182.714C209.284 182.725 209.193 182.736 209.102 182.745C207.861 182.878 206.304 182.705 205.088 181.784C203.868 180.875 203.31 179.548 203.07 178.512C202.844 177.55 202.755 176.478 202.782 175.398C202.809 174.304 202.95 173.197 203.176 172.16C203.247 171.835 203.333 171.521 203.423 171.214C203.73 170.191 204.069 169.39 204.371 168.678C204.463 168.464 204.554 168.251 204.643 168.04C204.889 167.262 205.151 166.457 205.406 165.68C205.436 165.547 205.467 165.405 205.496 165.264C205.652 164.542 205.849 163.643 206.165 162.57C206.668 160.859 207.229 159.412 207.83 157.883C208.298 156.692 208.789 155.459 209.297 154.021C209.643 153.041 210.015 151.917 210.388 150.804C210.942 149.151 211.498 147.519 211.956 146.416C212.13 145.998 212.321 145.663 212.514 145.328C212.515 145.327 212.515 145.326 212.516 145.324C212.53 145.301 212.543 145.278 212.556 145.255C213.046 143.921 213.541 142.588 214.046 141.255C214.57 139.871 215.085 138.485 215.582 137.096C215.656 136.857 215.731 136.616 215.804 136.376C216.163 135.207 216.496 134.069 216.651 133.309C216.821 132.484 217.445 130.487 217.989 128.376C218.347 126.995 218.667 125.569 218.853 124.406C218.963 123.724 219.15 123.104 219.324 122.468C219.487 121.869 219.637 121.261 219.683 120.584C219.706 120.253 219.704 119.881 219.688 119.512C219.674 119.172 219.649 118.838 219.62 118.482C219.592 118.169 219.6 117.424 219.451 116.642C219.359 116.156 219.2 115.67 218.968 115.301C218.949 115.277 218.93 115.252 218.91 115.229C218.054 114.228 217.237 114.093 215.706 114.505C215.406 114.649 215.153 114.825 214.972 115.007C214.839 115.139 214.742 115.276 214.642 115.42C214.503 115.617 214.374 115.82 214.16 116.05C213.995 116.228 213.772 116.395 213.596 116.465C213.514 116.498 213.441 116.51 213.375 116.522C213.299 116.535 213.232 116.546 213.167 116.59C213.12 116.621 213.083 116.671 213.036 116.733C212.961 116.832 212.868 116.959 212.681 117.095C211.984 117.599 211.191 118.228 210.444 118.902C209.612 119.651 208.84 120.453 208.277 121.134C208.066 121.388 207.821 121.675 207.558 121.985C207.097 122.529 206.413 123.388 205.801 124.163C205.14 125.002 204.469 125.875 203.923 126.631C203.384 127.377 202.889 128.187 202.403 128.987C201.827 129.936 201.279 130.848 200.705 131.58C200.593 131.722 200.394 131.859 200.143 132.035C199.965 132.159 199.759 132.304 199.54 132.482C198.901 133.444 198.253 134.417 197.612 135.38C197.6 135.421 197.587 135.464 197.574 135.506C197.574 135.507 197.574 135.508 197.574 135.509C197.287 136.47 196.906 137.779 195.712 139.186C195.405 139.548 195.156 139.728 194.928 139.894C194.705 140.057 194.504 140.202 194.304 140.478C194.075 140.792 193.878 141.21 193.667 141.661C193.369 142.296 193.032 143.016 192.532 143.616C192.497 143.657 192.46 143.702 192.422 143.748C192.058 144.187 191.519 144.84 190.897 145.429C189.519 147.488 188.142 149.547 186.77 151.607C184.482 155.045 182.206 158.489 179.987 161.953C178.9 163.651 177.695 165.133 176.567 166.136C175.446 167.125 174.516 167.513 173.954 167.193C173.388 166.882 173.233 165.877 173.537 164.393C173.849 162.894 174.577 161.088 175.581 159.308C177.205 156.428 178.87 153.566 180.562 150.728C180.645 150.574 180.727 150.422 180.81 150.27C181.429 149.142 181.931 148.044 182.436 146.948C182.552 146.696 182.668 146.444 182.786 146.193Z" fill="#B2CDFF" />
</g>
<g id="Group 2117131885">
<g id="Rectangle 1329137860_2">
<rect x="133.392" y="104.038" width="130" height="130" rx="16" transform="rotate(-15 133.392 104.038)" fill="white" />
<rect x="134.004" y="104.392" width="129" height="129" rx="15.5" transform="rotate(-15 134.004 104.392)" stroke="#0057FF" stroke-opacity="0.3" />
</g>
<path id="Rectangle 1329137863" d="M190.242 200.135C190.919 199.517 191.596 198.899 192.273 198.281C190.059 195.889 187.844 193.497 185.63 191.105C178.209 183.089 170.788 175.073 163.368 167.057C160.793 164.419 160.954 159.685 163.754 157.21C174.162 147.575 184.57 137.94 194.978 128.304C199.247 123.807 207.961 127.755 207.344 134.044C206.571 154.087 205.798 174.13 205.026 194.173C204.97 197.182 202.988 200.024 200.181 201.151C197.2 202.452 193.44 201.677 191.258 199.208C193.402 201.707 197.183 202.558 200.233 201.279C203.101 200.176 205.19 197.289 205.291 194.185C206.345 174.155 207.4 154.125 208.454 134.094C209.274 126.881 199.238 122.041 194.05 127.287C183.507 136.775 172.965 146.263 162.423 155.751C158.789 158.869 158.455 164.992 161.778 168.508C169.086 176.627 176.393 184.747 183.7 192.866C185.881 195.289 188.062 197.712 190.242 200.135ZM192.273 198.281L190.242 200.135L191.258 199.208L192.273 198.281Z" fill="#B2CDFF" />
<path id="Vector 4557_2" d="M182.956 169.633C183.755 170.082 184.555 170.53 185.354 170.979C187.47 167.168 189.715 163.404 192.002 159.655C199.567 147.401 207.389 135.065 215.755 123.519C217.699 121.121 219.977 118.921 222.568 117.37C225.096 115.812 228.35 115.145 229.929 117.463C233.246 125.452 227.789 135.747 224.678 144.511C220.746 154.657 216.849 164.712 213.873 175.305C213.478 177.384 213.25 179.565 213.895 181.749C214.4 184.063 217.166 185.523 219.326 185.137C228.34 182.482 232.396 173.895 236.914 166.891C241.143 159.882 245.277 152.297 251.723 147.339C253.121 146.427 255.03 146.378 256.199 147.585C257.383 148.741 257.84 150.519 257.876 152.213C257.18 160.074 253.972 167.624 252.663 175.55C252.334 177.974 253.899 180.87 256.548 181.012C259.569 181.335 261.943 179.036 263.714 176.93C264.989 175.364 266.065 173.634 266.912 171.807C267.904 169.639 268.848 167.45 269.763 165.25C268.825 167.441 267.859 169.619 266.844 171.776C265.981 173.587 264.891 175.3 263.608 176.843C261.831 178.924 259.435 181.138 256.58 180.788C254.041 180.601 252.645 177.937 252.965 175.569C254.337 167.752 257.625 160.306 258.429 152.205C258.403 150.42 257.969 148.504 256.623 147.15C255.289 145.711 252.91 145.763 251.384 146.771C244.56 151.92 240.478 159.401 236.117 166.428C231.713 173.294 226.986 181.848 219.228 183.954C214.792 184.701 214.241 179.212 215.162 175.571C218.158 165.337 222.207 155.143 226.213 145.131C229.276 136.081 235.568 126.957 231.496 116.287C230.438 114.746 228.356 113.769 226.495 113.93C224.624 114.038 223.002 114.755 221.531 115.591C218.602 117.308 216.189 119.615 214.079 122.157C205.372 133.906 197.537 146.012 189.78 158.282C187.441 162.027 185.144 165.788 182.956 169.633Z" fill="#B2CDFF" />
<path id="Rectangle 1329137862" d="M233 92.0001Lnan nanL233 93.3751C234.957 93.3515 236.911 93.6332 238.78 94.2164C246.329 96.4706 251.994 103.986 251.969 112C251.969 112 251.969 112 251.969 112C252.34 122.094 243.296 131.44 233 131.313C222.724 131.688 213.213 122.479 213.344 112C213.126 103.704 218.839 95.6331 226.839 93.0394C228.818 92.3721 230.903 92.0223 233 92.0001C230.903 91.9764 228.803 92.2805 226.797 92.9086C218.691 95.3365 212.625 103.406 212.657 112C212.657 112 212.657 112 212.657 112C212.27 122.827 221.971 132.831 233 132.688C233 132.688 233 132.688 233 132.688C244.011 133.079 254.179 123.213 254.032 112C254.032 112 254.032 112 254.032 112C254.257 103.124 248.143 94.4991 239.586 91.7316C237.47 91.0194 235.239 90.6471 233 90.6251V92.0001ZM233 92.0001" fill="#B2CDFF" />
</g>
</g>
</g>
<defs>
<linearGradient id="paint0_linear_1018_21205" x1="-1" y1="-2.18557e-08" x2="-1.00001" y2="300" gradientUnits="userSpaceOnUse">
<stop stop-color="#0066FF" stop-opacity="0.06" />
<stop offset="0.5" stop-color="#0057FF" stop-opacity="0.3" />
<stop offset="1" stop-color="#0066FF" stop-opacity="0.06" />
</linearGradient>
<linearGradient id="paint1_linear_1018_21205" x1="39" y1="-2.18557e-08" x2="39" y2="300" gradientUnits="userSpaceOnUse">
<stop stop-color="#0066FF" stop-opacity="0.06" />
<stop offset="0.5" stop-color="#0057FF" stop-opacity="0.3" />
<stop offset="1" stop-color="#0066FF" stop-opacity="0.06" />
</linearGradient>
<linearGradient id="paint2_linear_1018_21205" x1="79" y1="-2.18557e-08" x2="79" y2="300" gradientUnits="userSpaceOnUse">
<stop stop-color="#0066FF" stop-opacity="0.06" />
<stop offset="0.5" stop-color="#0057FF" stop-opacity="0.3" />
<stop offset="1" stop-color="#0066FF" stop-opacity="0.06" />
</linearGradient>
<linearGradient id="paint3_linear_1018_21205" x1="119" y1="-2.18557e-08" x2="119" y2="300" gradientUnits="userSpaceOnUse">
<stop stop-color="#0066FF" stop-opacity="0.06" />
<stop offset="0.5" stop-color="#0057FF" stop-opacity="0.3" />
<stop offset="1" stop-color="#0066FF" stop-opacity="0.06" />
</linearGradient>
<linearGradient id="paint4_linear_1018_21205" x1="159" y1="-2.18557e-08" x2="159" y2="300" gradientUnits="userSpaceOnUse">
<stop stop-color="#0066FF" stop-opacity="0.06" />
<stop offset="0.5" stop-color="#0057FF" stop-opacity="0.3" />
<stop offset="1" stop-color="#0066FF" stop-opacity="0.06" />
</linearGradient>
<linearGradient id="paint5_linear_1018_21205" x1="199" y1="-2.18557e-08" x2="199" y2="300" gradientUnits="userSpaceOnUse">
<stop stop-color="#0066FF" stop-opacity="0.06" />
<stop offset="0.5" stop-color="#0057FF" stop-opacity="0.3" />
<stop offset="1" stop-color="#0066FF" stop-opacity="0.06" />
</linearGradient>
<linearGradient id="paint6_linear_1018_21205" x1="239" y1="-2.18557e-08" x2="239" y2="300" gradientUnits="userSpaceOnUse">
<stop stop-color="#0066FF" stop-opacity="0.06" />
<stop offset="0.5" stop-color="#0057FF" stop-opacity="0.3" />
<stop offset="1" stop-color="#0066FF" stop-opacity="0.06" />
</linearGradient>
<linearGradient id="paint7_linear_1018_21205" x1="279" y1="-2.18557e-08" x2="279" y2="300" gradientUnits="userSpaceOnUse">
<stop stop-color="#0066FF" stop-opacity="0.06" />
<stop offset="0.5" stop-color="#0057FF" stop-opacity="0.3" />
<stop offset="1" stop-color="#0066FF" stop-opacity="0.06" />
</linearGradient>
<linearGradient id="paint8_linear_1018_21205" x1="319" y1="-2.18557e-08" x2="319" y2="300" gradientUnits="userSpaceOnUse">
<stop stop-color="#0066FF" stop-opacity="0.06" />
<stop offset="0.5" stop-color="#0057FF" stop-opacity="0.3" />
<stop offset="1" stop-color="#0066FF" stop-opacity="0.06" />
</linearGradient>
<linearGradient id="paint9_linear_1018_21205" x1="359" y1="-2.18557e-08" x2="359" y2="300" gradientUnits="userSpaceOnUse">
<stop stop-color="#0066FF" stop-opacity="0.06" />
<stop offset="0.5" stop-color="#0057FF" stop-opacity="0.3" />
<stop offset="1" stop-color="#0066FF" stop-opacity="0.06" />
</linearGradient>
<linearGradient id="paint10_linear_1018_21205" x1="399" y1="-2.18557e-08" x2="399" y2="300" gradientUnits="userSpaceOnUse">
<stop stop-color="#0066FF" stop-opacity="0.06" />
<stop offset="0.5" stop-color="#0057FF" stop-opacity="0.3" />
<stop offset="1" stop-color="#0066FF" stop-opacity="0.06" />
</linearGradient>
<linearGradient id="paint11_linear_1018_21205" x1="-0.5" y1="30.5" x2="399.5" y2="30.5" gradientUnits="userSpaceOnUse">
<stop stop-color="#0066FF" stop-opacity="0.06" />
<stop offset="0.5" stop-color="#0057FF" stop-opacity="0.3" />
<stop offset="1" stop-color="#0066FF" stop-opacity="0.06" />
</linearGradient>
<linearGradient id="paint12_linear_1018_21205" x1="-0.5" y1="70.5" x2="399.5" y2="70.5" gradientUnits="userSpaceOnUse">
<stop stop-color="#0066FF" stop-opacity="0.06" />
<stop offset="0.5" stop-color="#0057FF" stop-opacity="0.3" />
<stop offset="1" stop-color="#0066FF" stop-opacity="0.06" />
</linearGradient>
<linearGradient id="paint13_linear_1018_21205" x1="-0.5" y1="110.5" x2="399.5" y2="110.5" gradientUnits="userSpaceOnUse">
<stop stop-color="#0066FF" stop-opacity="0.06" />
<stop offset="0.5" stop-color="#0057FF" stop-opacity="0.3" />
<stop offset="1" stop-color="#0066FF" stop-opacity="0.06" />
</linearGradient>
<linearGradient id="paint14_linear_1018_21205" x1="-0.5" y1="150.5" x2="399.5" y2="150.5" gradientUnits="userSpaceOnUse">
<stop stop-color="#0066FF" stop-opacity="0.06" />
<stop offset="0.5" stop-color="#0057FF" stop-opacity="0.3" />
<stop offset="1" stop-color="#0066FF" stop-opacity="0.06" />
</linearGradient>
<linearGradient id="paint15_linear_1018_21205" x1="-0.5" y1="190.5" x2="399.5" y2="190.5" gradientUnits="userSpaceOnUse">
<stop stop-color="#0066FF" stop-opacity="0.06" />
<stop offset="0.5" stop-color="#0057FF" stop-opacity="0.3" />
<stop offset="1" stop-color="#0066FF" stop-opacity="0.06" />
</linearGradient>
<linearGradient id="paint16_linear_1018_21205" x1="-0.5" y1="230.5" x2="399.5" y2="230.5" gradientUnits="userSpaceOnUse">
<stop stop-color="#0066FF" stop-opacity="0.06" />
<stop offset="0.5" stop-color="#0057FF" stop-opacity="0.3" />
<stop offset="1" stop-color="#0066FF" stop-opacity="0.06" />
</linearGradient>
<linearGradient id="paint17_linear_1018_21205" x1="-0.5" y1="270.5" x2="399.5" y2="270.5" gradientUnits="userSpaceOnUse">
<stop stop-color="#0066FF" stop-opacity="0.06" />
<stop offset="0.5" stop-color="#0057FF" stop-opacity="0.3" />
<stop offset="1" stop-color="#0066FF" stop-opacity="0.06" />
</linearGradient>
<clipPath id="clip0_1018_21205">
<rect width="401" height="300" fill="white" />
</clipPath>
</defs>
</svg>