<svg xmlns="http://www.w3.org/2000/svg" width="401" height="300" viewBox="0 0 401 300" fill="none">
<g id="猫卤聠氓聦聟茅聟聧猫聣虏氓聫聜猫聙聝">
<path d="M-984 -183V-182H499V-183V-184H-984V-183ZM501 -181H500V781H501H502V-181H501ZM499 783V782H-984V783V784H499V783ZM-986 781H-985V-181H-986H-987V781H-986ZM-984 783V782C-984.552 782 -985 781.552 -985 781H-986H-987C-987 782.657 -985.657 784 -984 784V783ZM501 781H500C500 781.552 499.552 782 499 782V783V784C500.657 784 502 782.657 502 781H501ZM499 -183V-182C499.552 -182 500 -181.552 500 -181H501H502C502 -182.657 500.657 -184 499 -184V-183ZM-984 -183V-184C-985.657 -184 -987 -182.657 -987 -181H-986H-985C-985 -181.552 -984.552 -182 -984 -182V-183Z" fill="white" fill-opacity="0.1" />
<g id="animate_3_1" clip-path="url(#clip0_1018_21205)">
<g id="Frame 2119903615" clip-path="url(#clip1_1018_21205)">
<g id="莽芦聳莽潞驴">
<line id="Line 457" x1="1" y1="2.18557e-08" x2="0.999987" y2="300" stroke="url(#paint0_linear_1018_21205)" stroke-opacity="0.3" />
<line id="Line 456" x1="41" y1="2.18557e-08" x2="41" y2="300" stroke="url(#paint1_linear_1018_21205)" stroke-opacity="0.5" />
<line id="Line 455" x1="81" y1="2.18557e-08" x2="81" y2="300" stroke="url(#paint2_linear_1018_21205)" stroke-opacity="0.7" />
<line id="Line 458" x1="121" y1="2.18557e-08" x2="121" y2="300" stroke="url(#paint3_linear_1018_21205)" stroke-opacity="0.9" />
<line id="Line 459" x1="161" y1="2.18557e-08" x2="161" y2="300" stroke="url(#paint4_linear_1018_21205)" />
<line id="Line 460" x1="201" y1="2.18557e-08" x2="201" y2="300" stroke="url(#paint5_linear_1018_21205)" />
<line id="Line 461" x1="241" y1="2.18557e-08" x2="241" y2="300" stroke="url(#paint6_linear_1018_21205)" />
<line id="Line 462" x1="281" y1="2.18557e-08" x2="281" y2="300" stroke="url(#paint7_linear_1018_21205)" stroke-opacity="0.9" />
<line id="Line 463" x1="321" y1="2.18557e-08" x2="321" y2="300" stroke="url(#paint8_linear_1018_21205)" stroke-opacity="0.7" />
<line id="Line 464" x1="361" y1="2.18557e-08" x2="361" y2="300" stroke="url(#paint9_linear_1018_21205)" stroke-opacity="0.5" />
<line id="Line 465" x1="401" y1="2.18557e-08" x2="401" y2="300" stroke="url(#paint10_linear_1018_21205)" stroke-opacity="0.3" />
</g>
<g id="忙篓陋莽潞驴">
<line id="Line 467" x1="0.5" y1="29.5" x2="400.5" y2="29.5" stroke="url(#paint11_linear_1018_21205)" stroke-opacity="0.5" />
<line id="Line 468" x1="0.5" y1="69.5" x2="400.5" y2="69.5" stroke="url(#paint12_linear_1018_21205)" stroke-opacity="0.7" />
<line id="Line 469" x1="0.5" y1="109.5" x2="400.5" y2="109.5" stroke="url(#paint13_linear_1018_21205)" stroke-opacity="0.9" />
<line id="Line 470" x1="0.5" y1="149.5" x2="400.5" y2="149.5" stroke="url(#paint14_linear_1018_21205)" />
<line id="Line 471" x1="0.5" y1="189.5" x2="400.5" y2="189.5" stroke="url(#paint15_linear_1018_21205)" stroke-opacity="0.9" />
<line id="Line 472" x1="0.5" y1="229.5" x2="400.5" y2="229.5" stroke="url(#paint16_linear_1018_21205)" stroke-opacity="0.7" />
<line id="Line 473" x1="0.5" y1="269.5" x2="400.5" y2="269.5" stroke="url(#paint17_linear_1018_21205)" stroke-opacity="0.5" />
</g>
</g>
<g id="Rectangle 1329137859">
<rect x="68" y="120" width="266" height="60" rx="30" fill="white" />
<rect x="68.5" y="120.5" width="265" height="59" rx="29.5" stroke="#0057FF" stroke-opacity="0.3" />
</g>
<path id="莽聰聼忙聢聬盲赂聙盲赂陋茅聼鲁盲鹿聬盲潞潞莽陆聭莽芦聶" d="M92.856 146.024C92.216 147.48 91.4 148.696 90.408 149.688L89.672 148.744C91.176 147.176 92.2 145.048 92.728 142.376L93.896 142.584C93.72 143.416 93.512 144.184 93.272 144.904H96.696V142.056H97.864V144.904H103.128V146.024H97.864V149.72H102.808V150.84H97.864V154.904H104.152V156.056H90.056V154.904H96.696V150.84H91.992V149.72H96.696V146.024H92.856ZM116.904 141.88C117.672 142.456 118.328 143.048 118.872 143.64L118.136 144.376H120.088V145.48H115.16C115.272 147.464 115.48 149.032 115.768 150.184C115.864 150.584 115.976 150.952 116.088 151.304C116.888 150.024 117.528 148.52 118.024 146.808L119.064 147.256C118.424 149.368 117.592 151.16 116.568 152.6C116.792 153.112 117.032 153.56 117.288 153.928C117.816 154.696 118.248 155.08 118.568 155.08C118.856 155.064 119.128 154.232 119.368 152.584L120.408 153.16C120.024 155.288 119.48 156.36 118.76 156.36C118.088 156.36 117.368 155.88 116.6 154.92C116.312 154.536 116.04 154.088 115.8 153.592C114.68 154.904 113.368 155.88 111.864 156.552L111.224 155.592C112.824 154.872 114.184 153.816 115.288 152.424C115.064 151.832 114.856 151.192 114.68 150.504C114.328 149.16 114.104 147.48 113.976 145.48H108.488V148.136H112.408C112.376 150.84 112.248 152.584 112.04 153.368C111.832 154.056 111.336 154.408 110.536 154.44C110.152 154.44 109.688 154.408 109.176 154.376L108.824 153.336C109.448 153.368 109.976 153.384 110.408 153.384C110.76 153.368 110.984 153.128 111.08 152.68C111.176 152.136 111.224 150.984 111.256 149.224H108.488V149.704C108.424 152.568 107.784 154.872 106.6 156.6L105.72 155.816C106.744 154.344 107.272 152.312 107.32 149.704V144.376H113.928C113.896 143.576 113.88 142.76 113.88 141.896H115.064C115.064 142.792 115.08 143.608 115.112 144.376H118.104C117.624 143.8 116.984 143.208 116.168 142.584L116.904 141.88ZM121.8 148.552H136.184V149.704H121.8V148.552ZM144.408 146.664H145.592V156.584H144.408V146.664ZM144.488 141.944H145.512C146.856 144.152 149.16 146.088 152.424 147.768L151.736 148.808C148.728 147.24 146.472 145.32 145 143.016C143.224 145.544 140.984 147.496 138.264 148.872L137.576 147.832C140.568 146.312 142.872 144.344 144.488 141.944ZM165.992 149.464V156.6H164.824V155.864H157.24V156.6H156.072V149.464H165.992ZM157.24 154.84H164.824V153.176H157.24V154.84ZM157.24 152.184H164.824V150.488H157.24V152.184ZM154.696 143.496H160.504C160.264 142.952 160.008 142.44 159.736 141.992L160.952 141.8C161.208 142.296 161.448 142.856 161.672 143.496H167.32V144.552H164.776C164.536 145.448 164.216 146.296 163.8 147.112H168.056V148.184H153.944V147.112H158.072C157.816 146.184 157.512 145.336 157.192 144.552H154.696V143.496ZM158.408 144.552C158.696 145.32 158.968 146.184 159.224 147.112H162.68C163.112 146.296 163.432 145.448 163.624 144.552H158.408ZM170.68 149.304C171.192 146.952 171.576 144.872 171.8 143.064C172.088 143.112 172.408 143.144 172.728 143.16C176.52 143.144 179.592 142.76 181.944 142.024L182.488 143C180.024 143.704 176.776 144.072 172.744 144.136C172.488 145.656 172.216 147 171.96 148.184H176.536V145.048H177.72V148.184H183.56V149.304H177.72V154.984C177.72 156.008 177.208 156.536 176.216 156.536H174.072L173.832 155.4C174.52 155.448 175.176 155.48 175.816 155.48C176.296 155.48 176.536 155.208 176.536 154.696V149.304H170.68ZM172.76 150.536L173.768 151.032C172.936 152.904 171.976 154.536 170.872 155.912L169.88 155.208C171 153.896 171.96 152.344 172.76 150.536ZM180.92 150.44C181.896 151.976 182.824 153.64 183.704 155.464L182.632 156.008C181.784 154.12 180.872 152.424 179.896 150.936L180.92 150.44ZM193.576 141.96C193.576 143.336 193.528 144.52 193.464 145.512C194.36 149.864 196.68 153.192 200.408 155.48L199.656 156.488C196.392 154.344 194.184 151.464 193.048 147.848C192.088 151.336 189.816 154.216 186.264 156.504L185.56 155.48C189.96 152.776 192.232 149.112 192.376 144.504C192.392 143.416 192.408 142.568 192.408 141.96H193.576ZM208.536 152.968C208.024 152.152 207.512 151.384 207.016 150.664C206.44 152.232 205.736 153.576 204.92 154.696L204.184 153.8C205.016 152.616 205.704 151.208 206.248 149.592C205.48 148.568 204.728 147.64 203.992 146.792L204.712 146.104C205.304 146.728 205.944 147.48 206.616 148.376C206.92 147.256 207.176 146.04 207.368 144.76L208.424 144.952C208.168 146.6 207.832 148.104 207.416 149.464C208.024 150.296 208.664 151.208 209.304 152.2L208.536 152.968ZM213.224 153.704C212.68 152.76 212.136 151.88 211.608 151.048C210.968 152.616 210.216 153.96 209.352 155.08L208.616 154.2C209.512 152.984 210.264 151.56 210.856 149.928C210.12 148.84 209.4 147.848 208.664 146.952L209.384 146.264C209.96 146.92 210.6 147.72 211.272 148.68C211.624 147.48 211.896 146.184 212.12 144.808L213.208 145C212.92 146.776 212.536 148.376 212.056 149.816C212.664 150.744 213.32 151.784 214.008 152.936L213.224 153.704ZM213.96 156.504H212.344L212.04 155.384L213.576 155.432C214.024 155.432 214.248 155.208 214.248 154.776V143.688H203.752V156.568H202.616V142.584H215.384V155.032C215.384 156.008 214.904 156.504 213.96 156.504ZM226.968 141.912H228.152V144.728H232.168V145.848H228.152V148.968H231.384V156.504H230.264V155.448H225.752V156.52H224.648V148.968H226.968V141.912ZM225.752 154.376H230.264V149.976H225.752V154.376ZM217.896 144.584H220.488C220.296 143.72 220.056 142.936 219.8 142.232L220.968 142.04C221.192 142.776 221.4 143.624 221.592 144.584H224.184V145.704H217.896V144.584ZM219.352 146.664C219.736 148.52 220.088 150.664 220.392 153.064L219.432 153.304C219.144 151.112 218.776 149 218.344 146.984L219.352 146.664ZM223.928 153.08V154.2C222.104 154.728 220.152 155.16 218.056 155.512L217.784 154.408C218.968 154.248 220.12 154.04 221.256 153.784C221.768 151.512 222.12 149.096 222.344 146.536L223.464 146.696C223.208 149.16 222.84 151.432 222.328 153.528C222.872 153.384 223.4 153.24 223.928 153.08Z" fill="#0057FF" fill-opacity="0.65" />
<g id="_btn_04忙聯聧盲陆聹氓聦潞">
<g id="dbx_ic_bot">
<path id="Union (Stroke)" d="M308.003 143.984C308.49 143.984 308.846 144.336 308.915 144.8C309.343 147.348 309.897 148.484 310.708 149.297C311.517 150.108 312.643 150.658 315.179 151.089C315.651 151.137 316.016 151.516 316.016 152.003C316.016 152.489 315.647 152.861 315.183 152.916C312.644 153.344 311.503 153.877 310.693 154.689C309.883 155.501 309.343 156.655 308.915 159.207C308.846 159.667 308.488 160.016 308.003 160.016C307.524 160.016 307.162 159.667 307.086 159.21C306.657 156.637 306.121 155.501 305.311 154.693C304.502 153.886 303.36 153.344 300.821 152.916C300.363 152.855 299.984 152.499 299.984 152.003C299.984 151.514 300.351 151.137 300.827 151.089C303.36 150.658 304.503 150.127 305.311 149.316C306.121 148.503 306.657 147.347 307.086 144.796C307.162 144.335 307.523 143.984 308.003 143.984Z" fill="#0057FF" />
<path id="Union (Stroke)_2" d="M298.002 139.547C298.272 139.547 298.47 139.742 298.508 140C298.746 141.416 299.054 142.047 299.504 142.498C299.954 142.949 300.579 143.255 301.988 143.494C302.251 143.521 302.453 143.731 302.453 144.002C302.453 144.271 302.248 144.479 301.99 144.509C300.58 144.747 299.946 145.043 299.496 145.494C299.046 145.945 298.746 146.586 298.508 148.004C298.47 148.259 298.271 148.453 298.002 148.453C297.736 148.453 297.535 148.259 297.492 148.006C297.254 146.576 296.956 145.945 296.506 145.496C296.057 145.048 295.422 144.747 294.012 144.509C293.757 144.475 293.547 144.277 293.547 144.002C293.547 143.73 293.751 143.52 294.015 143.494C295.422 143.255 296.057 142.959 296.506 142.509C296.956 142.057 297.254 141.415 297.492 139.998C297.534 139.742 297.735 139.547 298.002 139.547Z" fill="#0057FF" />
</g>
</g>
</g>
</g>
<defs>
<linearGradient id="paint0_linear_1018_21205" x1="0" y1="-2.18557e-08" x2="-1.31134e-05" y2="300" gradientUnits="userSpaceOnUse">
<stop stop-color="#0066FF" stop-opacity="0.06" />
<stop offset="0.5" stop-color="#0057FF" stop-opacity="0.3" />
<stop offset="1" stop-color="#0066FF" stop-opacity="0.06" />
</linearGradient>
<linearGradient id="paint1_linear_1018_21205" x1="40" y1="-2.18557e-08" x2="40" y2="300" gradientUnits="userSpaceOnUse">
<stop stop-color="#0066FF" stop-opacity="0.06" />
<stop offset="0.5" stop-color="#0057FF" stop-opacity="0.3" />
<stop offset="1" stop-color="#0066FF" stop-opacity="0.06" />
</linearGradient>
<linearGradient id="paint2_linear_1018_21205" x1="80" y1="-2.18557e-08" x2="80" y2="300" gradientUnits="userSpaceOnUse">
<stop stop-color="#0066FF" stop-opacity="0.06" />
<stop offset="0.5" stop-color="#0057FF" stop-opacity="0.3" />
<stop offset="1" stop-color="#0066FF" stop-opacity="0.06" />
</linearGradient>
<linearGradient id="paint3_linear_1018_21205" x1="120" y1="-2.18557e-08" x2="120" y2="300" gradientUnits="userSpaceOnUse">
<stop stop-color="#0066FF" stop-opacity="0.06" />
<stop offset="0.5" stop-color="#0057FF" stop-opacity="0.3" />
<stop offset="1" stop-color="#0066FF" stop-opacity="0.06" />
</linearGradient>
<linearGradient id="paint4_linear_1018_21205" x1="160" y1="-2.18557e-08" x2="160" y2="300" gradientUnits="userSpaceOnUse">
<stop stop-color="#0066FF" stop-opacity="0.06" />
<stop offset="0.5" stop-color="#0057FF" stop-opacity="0.3" />
<stop offset="1" stop-color="#0066FF" stop-opacity="0.06" />
</linearGradient>
<linearGradient id="paint5_linear_1018_21205" x1="200" y1="-2.18557e-08" x2="200" y2="300" gradientUnits="userSpaceOnUse">
<stop stop-color="#0066FF" stop-opacity="0.06" />
<stop offset="0.5" stop-color="#0057FF" stop-opacity="0.3" />
<stop offset="1" stop-color="#0066FF" stop-opacity="0.06" />
</linearGradient>
<linearGradient id="paint6_linear_1018_21205" x1="240" y1="-2.18557e-08" x2="240" y2="300" gradientUnits="userSpaceOnUse">
<stop stop-color="#0066FF" stop-opacity="0.06" />
<stop offset="0.5" stop-color="#0057FF" stop-opacity="0.3" />
<stop offset="1" stop-color="#0066FF" stop-opacity="0.06" />
</linearGradient>
<linearGradient id="paint7_linear_1018_21205" x1="280" y1="-2.18557e-08" x2="280" y2="300" gradientUnits="userSpaceOnUse">
<stop stop-color="#0066FF" stop-opacity="0.06" />
<stop offset="0.5" stop-color="#0057FF" stop-opacity="0.3" />
<stop offset="1" stop-color="#0066FF" stop-opacity="0.06" />
</linearGradient>
<linearGradient id="paint8_linear_1018_21205" x1="320" y1="-2.18557e-08" x2="320" y2="300" gradientUnits="userSpaceOnUse">
<stop stop-color="#0066FF" stop-opacity="0.06" />
<stop offset="0.5" stop-color="#0057FF" stop-opacity="0.3" />
<stop offset="1" stop-color="#0066FF" stop-opacity="0.06" />
</linearGradient>
<linearGradient id="paint9_linear_1018_21205" x1="360" y1="-2.18557e-08" x2="360" y2="300" gradientUnits="userSpaceOnUse">
<stop stop-color="#0066FF" stop-opacity="0.06" />
<stop offset="0.5" stop-color="#0057FF" stop-opacity="0.3" />
<stop offset="1" stop-color="#0066FF" stop-opacity="0.06" />
</linearGradient>
<linearGradient id="paint10_linear_1018_21205" x1="400" y1="-2.18557e-08" x2="400" y2="300" gradientUnits="userSpaceOnUse">
<stop stop-color="#0066FF" stop-opacity="0.06" />
<stop offset="0.5" stop-color="#0057FF" stop-opacity="0.3" />
<stop offset="1" stop-color="#0066FF" stop-opacity="0.06" />
</linearGradient>
<linearGradient id="paint11_linear_1018_21205" x1="0.5" y1="30.5" x2="400.5" y2="30.5" gradientUnits="userSpaceOnUse">
<stop stop-color="#0066FF" stop-opacity="0.06" />
<stop offset="0.5" stop-color="#0057FF" stop-opacity="0.3" />
<stop offset="1" stop-color="#0066FF" stop-opacity="0.06" />
</linearGradient>
<linearGradient id="paint12_linear_1018_21205" x1="0.5" y1="70.5" x2="400.5" y2="70.5" gradientUnits="userSpaceOnUse">
<stop stop-color="#0066FF" stop-opacity="0.06" />
<stop offset="0.5" stop-color="#0057FF" stop-opacity="0.3" />
<stop offset="1" stop-color="#0066FF" stop-opacity="0.06" />
</linearGradient>
<linearGradient id="paint13_linear_1018_21205" x1="0.5" y1="110.5" x2="400.5" y2="110.5" gradientUnits="userSpaceOnUse">
<stop stop-color="#0066FF" stop-opacity="0.06" />
<stop offset="0.5" stop-color="#0057FF" stop-opacity="0.3" />
<stop offset="1" stop-color="#0066FF" stop-opacity="0.06" />
</linearGradient>
<linearGradient id="paint14_linear_1018_21205" x1="0.5" y1="150.5" x2="400.5" y2="150.5" gradientUnits="userSpaceOnUse">
<stop stop-color="#0066FF" stop-opacity="0.06" />
<stop offset="0.5" stop-color="#0057FF" stop-opacity="0.3" />
<stop offset="1" stop-color="#0066FF" stop-opacity="0.06" />
</linearGradient>
<linearGradient id="paint15_linear_1018_21205" x1="0.5" y1="190.5" x2="400.5" y2="190.5" gradientUnits="userSpaceOnUse">
<stop stop-color="#0066FF" stop-opacity="0.06" />
<stop offset="0.5" stop-color="#0057FF" stop-opacity="0.3" />
<stop offset="1" stop-color="#0066FF" stop-opacity="0.06" />
</linearGradient>
<linearGradient id="paint16_linear_1018_21205" x1="0.5" y1="230.5" x2="400.5" y2="230.5" gradientUnits="userSpaceOnUse">
<stop stop-color="#0066FF" stop-opacity="0.06" />
<stop offset="0.5" stop-color="#0057FF" stop-opacity="0.3" />
<stop offset="1" stop-color="#0066FF" stop-opacity="0.06" />
</linearGradient>
<linearGradient id="paint17_linear_1018_21205" x1="0.5" y1="270.5" x2="400.5" y2="270.5" gradientUnits="userSpaceOnUse">
<stop stop-color="#0066FF" stop-opacity="0.06" />
<stop offset="0.5" stop-color="#0057FF" stop-opacity="0.3" />
<stop offset="1" stop-color="#0066FF" stop-opacity="0.06" />
</linearGradient>
<clipPath id="clip0_1018_21205">
<rect width="401" height="300" fill="white" />
</clipPath>
<clipPath id="clip1_1018_21205">
<rect width="401" height="300" fill="white" transform="translate(0.5)" />
</clipPath>
</defs>
</svg>